<svg xmlns="http://www.w3.org/2000/svg" xmlns:xlink="http://www.w3.org/1999/xlink" version="1.1" id="Layer_1" x="0px" y="0px" width="100%" viewBox="0 0 838 860" enable-background="new 0 0 838 860" xml:space="preserve">
<path fill="none" opacity="1.000000" stroke="#c76234" stroke-linecap="round" stroke-linejoin="round" stroke-width="3.000000" d=" M340.000000,718.000000   C340.000000,660.832825 340.000000,603.665710 340.000000,546.250000   C395.500000,546.250000 450.500000,546.250000 506.000000,546.250000   C506.000000,603.665710 506.000000,660.832825 506.000000,718.000000  "/>
<path fill="none" opacity="1.000000" stroke="#c76234" stroke-linecap="round" stroke-linejoin="round" stroke-width="3.000000" d=" M429.500000,200.000000   C432.720490,201.467697 433.821838,203.711639 434.165771,207.484894   C435.794464,225.352066 438.106903,243.155518 439.969482,261.003174   C441.776825,278.321838 443.013611,295.705566 445.116699,312.985809   C446.435272,323.820099 447.719757,334.690430 448.742645,345.524292   C450.142120,360.347015 451.684875,375.169373 453.139252,389.986328   C454.763947,406.538025 455.453217,423.333527 463.833954,438.591187   C467.093109,444.524719 471.181702,449.326416 476.631439,452.793365   C478.463837,453.959076 478.998810,454.741028 478.999390,456.500000   C479.001038,461.333344 479.000000,466.166656 479.000000,471.000000   C479.000000,471.333344 479.125061,471.738068 478.981506,471.989441   C476.238892,476.792633 471.671356,473.715240 467.986542,474.430725   C465.626190,474.889038 463.823639,474.149384 463.949432,470.997986   C464.142059,466.172333 464.000000,461.333344 464.000000,456.500000  "/>
<path fill="none" opacity="1.000000" stroke="#c76234" stroke-linecap="round" stroke-linejoin="round" stroke-width="3.000000" d=" M419.500000,200.000000   C415.891266,201.480515 415.144623,204.232559 414.869080,207.990402   C414.072723,218.850876 412.639038,229.663788 411.507568,240.500793   C410.307281,251.997284 409.199249,263.503418 407.990509,274.998993   C406.868408,285.670349 405.610718,296.327606 404.514862,307.001526   C403.283539,318.994873 402.426666,331.032654 400.924316,342.990479   C399.522095,354.151154 398.652069,365.363647 397.161499,376.521576   C395.811554,386.626892 395.320160,396.860260 394.052155,407.006531   C392.959717,415.747803 391.488190,424.307098 388.070068,432.529144   C384.926544,440.090668 381.187836,447.050079 373.985901,451.477051   C371.078644,453.264069 370.258331,455.698395 370.434113,459.003510   C370.690491,463.823212 370.500000,468.666656 370.500000,473.500000  "/>
<path fill="none" opacity="1.000000" stroke="#c76234" stroke-linecap="round" stroke-linejoin="round" stroke-width="2.000000" d=" M460.500000,848.000000   C460.500000,816.333313 460.500000,784.666687 460.500000,752.750000   C435.833344,752.750000 411.166656,752.750000 386.000000,752.750000   C386.000000,784.664917 386.000000,816.332458 386.000000,848.000000  "/>
<path fill="none" opacity="1.000000" stroke="#c76234" stroke-linecap="round" stroke-linejoin="round" stroke-width="2.000000" d=" M501.500000,848.000000   C501.500000,816.332458 501.500000,784.664917 501.500000,752.750000   C489.004639,752.750000 477.002319,752.750000 464.500000,752.750000   C464.500000,784.331604 464.500000,816.165771 464.500000,848.000000  "/>
<path fill="none" opacity="1.000000" stroke="#c76234" stroke-linecap="round" stroke-linejoin="round" stroke-width="2.000000" d=" M382.500000,848.000000   C382.500000,816.332458 382.500000,784.664917 382.500000,752.750000   C369.833344,752.750000 357.666656,752.750000 345.000000,752.750000   C345.000000,784.664917 345.000000,816.332458 345.000000,848.000000  "/>
<path fill="none" opacity="1.000000" stroke="#c76234" stroke-linecap="round" stroke-linejoin="round" stroke-width="3.000000" d=" M427.000000,249.500000   C427.000000,338.333344 427.000000,427.166656 427.000000,516.000000  "/>
<path fill="none" opacity="1.000000" stroke="#c76234" stroke-linecap="round" stroke-linejoin="round" stroke-width="3.000000" d=" M421.500000,249.500000   C420.698730,251.103210 421.014984,252.825485 421.011932,254.500015   C420.989716,266.666626 421.051636,278.833618 420.989288,290.999939   C420.857788,316.666779 421.026062,342.342041 420.405243,367.997711   C419.695312,397.335510 420.309845,426.667542 419.994995,455.999939   C419.853699,469.166901 420.211792,482.332947 419.586182,495.504089   C419.262695,502.314148 419.833313,509.166656 420.000000,516.000000  "/>
<path fill="none" opacity="1.000000" stroke="#c76234" stroke-linecap="round" stroke-linejoin="round" stroke-width="2.000000" d=" M391.500000,718.000000   C391.500000,670.666077 391.500000,623.332153 391.500000,576.024841   C395.965454,575.004333 399.996674,575.582764 404.000031,575.501465   C419.665070,575.183044 435.340607,576.093567 451.003174,575.047729   C453.470673,574.882996 455.231903,576.085022 455.009613,579.000732   C454.946472,579.829224 455.000000,580.666687 455.000000,581.500000   C455.000000,625.166687 455.003937,668.833313 454.986237,712.500000   C454.985504,714.338684 455.343353,716.228210 454.500000,718.000000  "/>
<path fill="none" opacity="1.000000" stroke="#c76234" stroke-linecap="round" stroke-linejoin="round" stroke-width="3.000000" d=" M541.000000,718.000000   C541.000000,659.832886 541.000000,601.665710 541.000000,543.250000   C543.978027,543.250000 546.489014,543.250000 549.325256,543.250000   C549.375244,544.322754 549.499146,545.661804 549.489929,546.999939   C549.435364,554.925293 549.294861,553.993469 557.000000,553.997559   C572.500000,554.005737 588.000000,553.996948 603.499939,554.020935   C603.833679,554.021423 604.166809,554.333008 605.000000,554.749146   C605.000000,562.993469 605.000000,571.496704 605.000000,580.000000   C605.000000,585.333313 605.000000,590.666687 605.000000,596.000000   C605.000000,650.666687 604.997620,705.333313 605.011292,760.000000   C605.011719,761.674377 604.698730,763.396790 605.500000,765.000000  "/>
<path fill="none" opacity="1.000000" stroke="#c76234" stroke-linecap="round" stroke-linejoin="round" stroke-width="2.000000" d=" M491.500000,718.000000   C490.656647,716.228210 491.014526,714.338684 491.013763,712.500000   C490.996094,668.666687 491.000763,624.833313 490.998993,581.000000   C490.998779,575.528992 490.989532,575.634399 485.500763,575.473816   C478.334473,575.264160 471.154449,576.070862 463.994049,575.041382   C461.619171,574.699951 460.253906,575.898865 460.488342,578.501038   C460.562836,579.327637 460.500000,580.166687 460.500000,581.000000   C460.500000,626.666687 460.500000,672.333313 460.500000,718.000000  "/>
<path fill="none" opacity="1.000000" stroke="#c76234" stroke-linecap="round" stroke-linejoin="round" stroke-width="3.000000" d=" M119.000000,848.000000   C119.000000,828.498596 119.000000,808.997131 119.000000,789.250000   C100.500000,789.250000 82.500000,789.250000 64.000000,789.250000   C64.000000,795.991455 64.097664,802.497498 63.978817,808.999634   C63.759476,820.999207 64.595764,833.011536 63.533432,845.002991   C63.446835,845.980530 63.833328,847.000000 63.999996,848.000000  "/>
<path fill="none" opacity="1.000000" stroke="#c76234" stroke-linecap="round" stroke-linejoin="round" stroke-width="3.000000" d=" M781.000000,848.000000   C781.000000,828.498596 781.000000,808.997131 781.000000,789.250000   C762.500000,789.250000 744.500000,789.250000 726.000000,789.250000   C726.000000,795.323792 726.088196,801.163513 725.981628,806.999634   C725.759460,819.165894 726.567383,831.343506 725.539673,843.503357   C725.414978,844.978760 725.833374,846.500000 726.000000,848.000000  "/>
<path fill="none" opacity="1.000000" stroke="#c76234" stroke-linecap="round" stroke-linejoin="round" stroke-width="3.000000" d=" M355.000000,718.000000   C355.000000,672.666687 355.000000,627.333313 355.000000,582.000000   C355.000000,575.349365 354.999329,575.411133 361.500183,575.483093   C368.332703,575.558716 375.167603,575.566711 381.999542,575.468567   C384.899170,575.426880 386.065430,576.371521 386.059448,579.500122   C385.972687,624.833252 386.002686,670.166687 385.979187,715.500000   C385.978760,716.333374 385.666687,717.166687 385.500031,718.000000  "/>
<path fill="none" opacity="1.000000" stroke="#c76234" stroke-linecap="round" stroke-linejoin="round" stroke-width="3.000000" d=" M239.000000,765.000000   C239.000000,708.833313 239.000000,652.666687 239.000000,596.500000   C239.000000,584.000000 239.124603,571.498047 238.926010,559.001160   C238.864395,555.123108 240.117126,553.793640 244.002274,553.939331   C256.660950,554.413879 269.330902,553.804993 282.008881,554.243774   C286.025299,554.382690 290.404785,554.726379 295.000000,553.628601   C295.000000,550.178528 295.000000,546.816162 295.000000,543.250000   C297.833344,543.250000 300.166656,543.250000 303.000000,543.250000   C303.000000,601.665710 303.000000,659.832886 303.000000,718.000000  "/>
<path fill="none" opacity="1.000000" stroke="#c76234" stroke-linecap="round" stroke-linejoin="round" stroke-width="3.000000" d=" M531.000000,518.000000   C531.000000,584.666687 531.000000,651.333313 531.000000,718.000000  "/>
<path fill="none" opacity="1.000000" stroke="#c76234" stroke-linecap="round" stroke-linejoin="round" stroke-width="3.000000" d=" M313.000000,518.000000   C313.000000,584.666687 313.000000,651.333313 313.000000,718.000000  "/>
<path fill="none" opacity="1.000000" stroke="#c76234" stroke-linecap="round" stroke-linejoin="round" stroke-width="3.000000" d=" M444.000000,848.000000   C444.000000,828.498596 444.000000,808.997131 444.000000,789.250000   C429.833344,789.250000 416.166656,789.250000 402.000000,789.250000   C402.000000,808.997131 402.000000,828.498596 402.000000,848.000000  "/>
<path fill="none" opacity="1.000000" stroke="#c76234" stroke-linecap="round" stroke-linejoin="round" stroke-width="2.000000" d=" M180.500000,592.000000   C180.500000,649.666687 180.500000,707.333313 180.500000,765.000000  "/>
<path fill="none" opacity="1.000000" stroke="#c76234" stroke-linecap="round" stroke-linejoin="round" stroke-width="3.000000" d=" M664.000000,592.000000   C664.000000,649.666687 664.000000,707.333313 664.000000,765.000000  "/>
<path fill="none" opacity="1.000000" stroke="#c76234" stroke-linecap="round" stroke-linejoin="round" stroke-width="3.000000" d=" M633.000000,592.000000   C633.000000,649.666687 633.000000,707.333313 633.000000,765.000000  "/>
<path fill="none" opacity="1.000000" stroke="#c76234" stroke-linecap="round" stroke-linejoin="round" stroke-width="2.000000" d=" M211.500000,592.000000   C211.500000,645.166687 211.512024,698.333313 211.478317,751.500000   C211.475464,756.000061 211.166672,760.500000 211.000000,765.000000  "/>
<path fill="none" opacity="1.000000" stroke="#c76234" stroke-linecap="round" stroke-linejoin="round" stroke-width="2.000000" d=" M140.000000,773.500000   C192.166672,773.500000 244.333328,773.500000 296.500000,773.500000  "/>
<path fill="none" opacity="1.000000" stroke="#c76234" stroke-linecap="round" stroke-linejoin="round" stroke-width="2.000000" d=" M705.000000,773.000000   C703.228210,773.843384 701.338684,773.485657 699.500000,773.486267   C650.833313,773.503540 602.166687,773.493530 553.500000,773.524902   C551.669312,773.526123 549.761169,773.039551 547.682861,774.130005   C547.214844,777.974243 546.811584,781.877380 547.326416,786.021545   C547.706543,789.081665 548.571228,790.112061 551.500916,790.033447   C556.164246,789.908203 560.841492,789.831787 565.497131,790.058716   C568.639893,790.211853 569.659607,788.900269 569.522217,785.998962   C569.411987,783.670837 569.500000,781.333313 569.500000,778.750000   C572.666687,778.750000 575.833313,778.750000 579.500000,778.750000   C579.500000,801.830872 579.500000,824.665466 579.500000,847.500000  "/>
<path fill="none" opacity="1.000000" stroke="#c76234" stroke-linecap="round" stroke-linejoin="round" stroke-width="3.000000" d=" M548.500000,773.500000   C546.943909,766.743958 546.646667,759.849060 547.077820,753.004883   C547.783325,741.802856 547.312073,730.657043 546.796265,719.000000   C464.166656,719.000000 381.833344,719.000000 299.000000,719.000000   C299.000000,761.998718 299.000000,804.499329 299.000000,847.000000  "/>
<path fill="none" opacity="1.000000" stroke="#c76234" stroke-linecap="round" stroke-linejoin="round" stroke-width="3.000000" d=" M517.000000,720.000000   C517.000000,762.666687 517.000000,805.333313 517.000000,848.000000  "/>
<path fill="none" opacity="1.000000" stroke="#c76234" stroke-linecap="round" stroke-linejoin="round" stroke-width="2.000000" d=" M511.500000,720.000000   C511.500000,760.500000 511.492279,801.000000 511.521271,841.500000   C511.522827,843.666809 511.833344,845.833313 512.000000,848.000000  "/>
<path fill="none" opacity="1.000000" stroke="#c76234" stroke-linecap="round" stroke-linejoin="round" stroke-width="3.000000" d=" M326.000000,720.000000   C326.000000,762.666687 326.000000,805.333313 326.000000,848.000000  "/>
<path fill="none" opacity="1.000000" stroke="#c76234" stroke-linecap="round" stroke-linejoin="round" stroke-width="3.000000" d=" M332.000000,720.000000   C332.000000,762.666687 332.000000,805.333313 332.000000,848.000000  "/>
<path fill="none" opacity="1.000000" stroke="#c76234" stroke-linecap="round" stroke-linejoin="round" stroke-width="3.000000" d=" M238.000000,579.000000   C206.832443,579.000000 175.664886,579.000000 144.000000,579.000000   C144.000000,641.332458 144.000000,703.166199 144.000000,765.000000  "/>
<path fill="none" opacity="1.000000" stroke="#c76234" stroke-linecap="round" stroke-linejoin="round" stroke-width="3.000000" d=" M706.000000,847.000000   C706.000000,808.499268 706.000000,769.998535 706.000000,731.000000   C738.166687,731.000000 769.833313,731.000000 802.000000,731.000000   C802.000000,769.998535 802.000000,808.499268 802.000000,847.000000  "/>
<path fill="none" opacity="1.000000" stroke="#c76234" stroke-linecap="round" stroke-linejoin="round" stroke-width="3.000000" d=" M606.000000,579.000000   C637.500854,579.000000 669.001770,579.000000 701.000000,579.000000   C701.000000,584.822937 700.941772,590.162170 701.010071,595.499878   C701.297974,617.999084 701.390808,640.513245 701.256653,662.998535   C701.062866,695.499207 701.325195,728.000854 700.980652,760.499817   C700.964722,762.001404 700.666687,763.500000 700.500000,765.000000  "/>
<path fill="none" opacity="1.000000" stroke="#c76234" stroke-linecap="round" stroke-linejoin="round" stroke-width="3.000000" d=" M139.000000,847.000000   C139.000000,808.499268 139.000000,769.998535 139.000000,731.000000   C106.666664,731.000000 74.833336,731.000000 43.198296,731.000000   C41.411339,737.092834 42.138481,742.940125 42.248741,748.495056   C42.870796,779.833496 42.194466,811.167358 42.476856,842.500183   C42.490360,843.998596 42.166664,845.500000 41.999996,847.000000  "/>
<path fill="none" opacity="1.000000" stroke="#c76234" stroke-linecap="round" stroke-linejoin="round" stroke-width="3.000000" d=" M143.000000,662.500000   C133.192490,663.595276 123.315376,662.636963 113.000000,663.120605   C113.000000,685.664185 113.000000,707.832092 113.000000,730.000000  "/>
<path fill="none" opacity="1.000000" stroke="#c76234" stroke-linecap="round" stroke-linejoin="round" stroke-width="3.000000" d=" M731.000000,730.000000   C731.000000,707.832092 731.000000,685.664185 731.000000,663.000000   C721.005859,663.000000 711.502930,663.000000 702.000000,663.000000  "/>
<path fill="none" opacity="1.000000" stroke="#c76234" stroke-linecap="round" stroke-linejoin="round" stroke-width="2.000000" d=" M690.500000,578.000000   C690.296326,575.002075 690.981445,571.954712 689.857117,568.500000   C662.002014,568.500000 634.000977,568.500000 606.000000,568.500000  "/>
<path fill="none" opacity="1.000000" stroke="#c76234" stroke-linecap="round" stroke-linejoin="round" stroke-width="3.000000" d=" M54.000000,732.000000   C54.000000,767.000000 54.000000,802.000000 54.000000,837.000000   C54.000000,840.666687 54.000000,844.333313 54.000000,848.000000  "/>
<path fill="none" opacity="1.000000" stroke="#c76234" stroke-linecap="round" stroke-linejoin="round" stroke-width="2.000000" d=" M791.000000,732.000000   C790.156616,733.771790 790.514771,735.661316 790.513855,737.500000   C790.495361,774.166687 790.500000,810.833313 790.500000,847.500000  "/>
<path fill="none" opacity="1.000000" stroke="#c76234" stroke-linecap="round" stroke-linejoin="round" stroke-width="2.000000" d=" M717.000000,732.000000   C717.843384,733.771790 717.485229,735.661316 717.486145,737.500000   C717.504639,774.166687 717.500000,810.833313 717.500000,847.500000  "/>
<path fill="none" opacity="1.000000" stroke="#c76234" stroke-linecap="round" stroke-linejoin="round" stroke-width="3.000000" d=" M285.000000,553.000000   C285.000000,543.830322 285.000000,534.660583 285.000000,525.000000   C287.496490,525.000000 289.503510,525.000000 292.000000,525.000000   C292.000000,522.172729 292.000000,519.827271 292.000000,517.000000   C379.166656,517.000000 465.833344,517.000000 553.000000,517.000000   C553.000000,519.827271 553.000000,522.172729 553.000000,524.432373   C559.500000,525.311584 559.388611,525.313965 559.530579,531.999329   C559.679260,538.999451 558.893311,546.022400 560.000000,553.000000  "/>
<path fill="none" opacity="1.000000" stroke="#c76234" stroke-linecap="round" stroke-linejoin="round" stroke-width="2.000000" d=" M127.000000,732.000000   C128.096848,740.314758 127.533699,748.682434 127.244240,756.991089   C127.172478,759.050781 127.627525,760.995300 127.615166,763.000732   C127.444649,790.666321 127.502251,818.333313 127.486862,846.000000   C127.486488,846.682251 127.830589,847.499329 126.507484,848.286743   C85.166664,849.184204 43.333332,847.632812 1.500000,848.000000  "/>
<path fill="none" opacity="1.000000" stroke="#c76234" stroke-linecap="round" stroke-linejoin="round" stroke-width="2.000000" d=" M154.000000,578.000000   C154.000000,568.500000 154.000000,568.500000 163.500000,568.500000   C188.333328,568.500000 213.166672,568.500000 238.000000,568.500000  "/>
<path fill="none" opacity="1.000000" stroke="#c76234" stroke-linecap="round" stroke-linejoin="round" stroke-width="3.000000" d=" M383.000000,456.500000   C383.000000,461.166656 382.847321,465.840118 383.053741,470.497620   C383.191132,473.597351 381.952393,474.602936 378.999176,474.537903   C373.168640,474.409454 367.329285,474.630707 361.501556,474.450012   C358.113220,474.344940 356.821350,475.392975 356.918213,479.002197   C357.164246,488.168945 357.000000,497.346680 357.000000,507.000000   C347.840149,507.000000 339.659851,507.000000 331.000000,507.000000   C331.000000,510.313782 331.000000,513.156921 331.000000,516.000000  "/>
<path fill="none" opacity="1.000000" stroke="#c76234" stroke-linecap="round" stroke-linejoin="round" stroke-width="3.000000" d=" M516.000000,516.000000   C516.000000,513.156921 516.000000,510.313782 516.000000,507.000000   C507.173340,507.000000 498.826660,507.000000 490.000000,507.000000   C490.000000,497.839752 489.850647,489.166473 490.047546,480.501068   C490.203522,473.635498 488.937439,474.473358 484.000122,474.458618   C482.511047,474.454132 480.894562,475.115570 479.500000,474.000000  "/>
<path fill="none" opacity="1.000000" stroke="#c76234" stroke-linecap="round" stroke-linejoin="round" stroke-width="2.000000" d=" M138.000000,745.000000   C106.500000,745.720520 75.000000,745.716064 43.500000,745.000000  "/>
<path fill="none" opacity="1.000000" stroke="#c76234" stroke-linecap="round" stroke-linejoin="round" stroke-width="2.000000" d=" M55.000000,758.000000   C64.333336,758.166687 73.666962,758.482788 82.999931,758.464294   C96.333542,758.437927 109.666550,758.155151 123.000229,758.023071   C123.998489,758.013245 125.000008,758.333313 126.000008,758.500000  "/>
<path fill="none" opacity="1.000000" stroke="#c76234" stroke-linecap="round" stroke-linejoin="round" stroke-width="2.000000" d=" M789.500000,758.000000   C783.337036,758.303345 777.162415,758.208191 770.996582,758.366455   C755.340210,758.768372 739.666626,758.516357 724.000061,758.477966   C722.166321,758.473450 720.333313,758.166687 718.500000,758.000000  "/>
<path fill="none" opacity="1.000000" stroke="#c76234" stroke-linecap="round" stroke-linejoin="round" stroke-width="3.000000" d=" M410.500000,122.000000   C409.332214,125.233162 410.397278,128.701523 409.146667,132.054703   C408.207184,134.573624 408.731476,137.199310 412.475281,138.102493   C416.347260,139.036636 417.195923,142.061111 417.101746,146.002426   C416.819153,157.831360 417.000000,169.671356 417.000000,181.775284   C419.313751,182.254837 422.292725,181.267685 422.453888,184.502304   C422.551544,186.461823 423.843079,185.386902 424.504730,185.452271   C429.377014,185.933746 431.760925,188.822342 431.000000,193.500000   C430.099792,199.033844 427.810364,200.649918 422.500000,199.500000   C418.836395,198.706696 416.362457,192.677216 418.540558,189.528061   C419.463959,188.193115 420.833344,187.166672 422.000000,186.000015  "/>
<path fill="none" opacity="1.000000" stroke="#c76234" stroke-linecap="round" stroke-linejoin="round" stroke-width="2.000000" d=" M707.000000,745.500000   C711.833313,744.364258 716.666626,745.514771 721.500000,745.509949   C744.000000,745.487549 766.500183,745.549133 788.999817,745.454224   C792.993958,745.437378 797.034119,745.985046 801.000000,745.000000  "/>
<path fill="none" opacity="1.000000" stroke="#c76234" stroke-linecap="round" stroke-linejoin="round" stroke-width="2.000000" d=" M454.500000,773.500000   C433.500000,773.500000 412.500000,773.500000 391.500000,773.500000  "/>
<path fill="none" opacity="1.000000" stroke="#c76234" stroke-linecap="round" stroke-linejoin="round" stroke-width="2.000000" d=" M169.500000,847.500000   C169.500000,835.333313 169.563049,823.166260 169.479568,811.000122   C169.415512,801.666138 169.156677,792.333496 169.011215,782.999817   C168.990234,781.654419 168.694321,780.253479 170.221283,778.750000   C172.666672,778.750000 175.833328,778.750000 179.500000,778.750000   C179.500000,801.830872 179.500000,824.665466 179.500000,847.500000  "/>
<path fill="none" opacity="1.000000" stroke="#c76234" stroke-linecap="round" stroke-linejoin="round" stroke-width="2.000000" d=" M675.500000,847.500000   C675.500000,824.665466 675.500000,801.830872 675.500000,779.158752   C672.046753,777.991516 668.994263,778.770386 665.500000,778.403992   C665.500000,801.497559 665.500000,824.498779 665.500000,847.500000  "/>
<path fill="none" opacity="1.000000" stroke="#c76234" stroke-linecap="round" stroke-linejoin="round" stroke-width="2.000000" d=" M569.000000,790.500000   C570.101807,795.804138 569.410828,801.168945 569.458862,806.500366   C569.581970,820.165955 569.500000,833.833313 569.500000,847.500000  "/>
<path fill="none" opacity="1.000000" stroke="#c76234" stroke-linecap="round" stroke-linejoin="round" stroke-width="2.000000" d=" M616.500000,847.500000   C616.500000,824.665466 616.500000,801.830872 616.500000,779.037659   C620.000000,778.252014 623.000000,778.252014 626.500000,779.037659   C626.500000,801.830872 626.500000,824.665466 626.500000,847.500000  "/>
<path fill="none" opacity="1.000000" stroke="#c76234" stroke-linecap="round" stroke-linejoin="round" stroke-width="4.000000" d=" M140.000000,765.500000   C143.000000,765.500000 146.000000,765.500000 149.000000,765.500000   C177.333328,765.500000 205.666672,765.500000 234.000000,765.500000   C254.833328,765.500000 275.666656,765.500000 296.500000,765.500000  "/>
<path fill="none" opacity="1.000000" stroke="#c76234" stroke-linecap="round" stroke-linejoin="round" stroke-width="4.000000" d=" M549.000000,765.500000   C601.000000,765.500000 653.000000,765.500000 705.000000,765.500000  "/>
<path fill="none" opacity="1.000000" stroke="#c76234" stroke-linecap="round" stroke-linejoin="round" stroke-width="3.000000" d=" M228.000000,847.000000   C228.000000,824.333313 228.000000,801.666687 228.000000,778.750000   C224.833328,778.750000 221.666672,778.750000 218.000000,778.750000   C218.000000,801.664246 218.000000,824.332092 218.000000,847.000000  "/>
<path fill="none" opacity="1.000000" stroke="#c76234" stroke-linecap="round" stroke-linejoin="round" stroke-width="3.000000" d=" M275.000000,847.000000   C275.000000,824.333313 275.000000,801.666687 275.000000,778.750000   C271.833344,778.750000 268.666656,778.750000 265.000000,778.750000   C265.000000,801.664246 265.000000,824.332092 265.000000,847.000000  "/>
<path fill="none" opacity="1.000000" stroke="#c76234" stroke-linecap="round" stroke-linejoin="round" stroke-width="2.000000" d=" M548.000000,790.500000   C546.903198,791.896667 547.523499,793.498352 547.520264,795.000061   C547.487122,810.333313 547.519592,825.666748 547.477783,840.999939   C547.471863,843.167053 547.166687,845.333313 547.000000,847.500000  "/>
<path fill="none" opacity="1.000000" stroke="#c76234" stroke-linecap="round" stroke-linejoin="round" stroke-width="3.000000" d=" M128.000000,848.000000   C364.833344,848.000000 601.666687,848.000000 838.500000,848.000000  "/>
<path fill="none" opacity="1.000000" stroke="#c76234" stroke-linecap="round" stroke-linejoin="round" stroke-width="3.000000" d=" M439.500000,637.500000   C436.852173,635.814880 439.446106,634.520325 440.076233,633.549500   C448.689758,620.279297 442.678864,604.465759 427.508240,600.468689   C419.669128,598.403320 406.188049,603.004150 403.020660,615.505249   C402.023041,619.442566 401.219147,623.551514 402.585663,627.470154   C403.797791,630.945984 402.227234,634.197876 402.174896,637.494812   C401.878510,656.164978 402.061401,674.835144 402.109375,693.499695   C402.130310,701.657776 401.181305,709.856873 402.500000,718.000000  "/>
<path fill="none" opacity="1.000000" stroke="#c76234" stroke-linecap="round" stroke-linejoin="round" stroke-width="3.000000" d=" M422.500000,138.500000   C433.721893,140.542221 432.095093,141.263901 432.016144,149.500153   C431.941071,157.332764 431.769104,165.176010 432.085175,172.996552   C432.280029,177.817947 431.595428,182.057205 428.000000,185.500000  "/>
<path fill="none" opacity="1.000000" stroke="#c76234" stroke-linecap="round" stroke-linejoin="round" stroke-width="3.000000" d=" M377.000000,718.000000   C377.000000,702.333313 377.000000,686.666687 377.000000,671.000000   C377.000000,652.833313 376.934814,634.666260 377.059021,616.500427   C377.081818,613.164246 376.274902,609.930420 376.830200,606.472717   C377.387756,603.001099 373.698578,599.817505 370.500000,600.000000   C366.697601,600.216980 363.995178,603.149658 363.996521,607.000000   C364.003845,627.833313 364.000000,648.666687 364.000000,669.500000   C364.000000,685.666687 364.000000,701.833313 364.000000,718.000000  "/>
<path fill="none" opacity="1.000000" stroke="#c76234" stroke-linecap="round" stroke-linejoin="round" stroke-width="3.000000" d=" M482.500000,718.000000   C481.134094,711.552979 481.699341,704.941772 481.734070,698.501282   C481.811371,684.163879 481.615051,669.828369 481.715027,655.501526   C481.802185,643.007019 481.722137,630.498657 481.988007,617.999756   C482.065979,614.334717 481.987671,610.666626 482.003265,607.000000   C482.020813,602.874695 479.645721,600.091003 476.000000,600.000000   C472.665527,599.916748 468.203949,603.773743 469.235077,606.923035   C470.434540,610.586365 468.809662,613.652161 468.898193,617.002686   C469.175293,627.495361 468.927429,638.000793 469.038116,648.499573   C469.078552,652.335388 469.306091,656.154846 469.051910,660.003418   C468.810791,663.654175 469.000000,667.333313 469.000000,671.000000   C469.000000,674.833313 469.000000,678.666687 469.000000,682.500000   C469.000000,686.166687 468.842468,689.841492 469.032074,693.498352   C469.455383,701.663025 468.394318,709.852478 469.500000,718.000000  "/>
<path fill="none" opacity="1.000000" stroke="#c76234" stroke-linecap="round" stroke-linejoin="round" stroke-width="3.000000"/>
<path fill="none" opacity="1.000000" stroke="#c76234" stroke-linecap="round" stroke-linejoin="round" stroke-width="3.000000" d=" M417.500000,642.500000   C416.541351,647.808594 417.022186,653.164246 417.012848,658.500000   C416.979828,677.333252 417.007660,696.166687 416.978699,714.999939   C416.977173,716.000244 416.666656,717.000000 416.500000,718.000000  "/>
<path fill="none" opacity="1.000000" stroke="#c76234" stroke-linecap="round" stroke-linejoin="round" stroke-width="3.000000" d=" M429.500000,642.000000   C430.940155,647.461426 429.790802,653.010376 429.881134,658.501953   C430.190857,677.330200 430.007660,696.166687 429.978699,714.999939   C429.977173,716.000244 429.666656,717.000000 429.500000,718.000000  "/>
<path fill="none" opacity="1.000000" stroke="#c76234" stroke-linecap="round" stroke-linejoin="round" stroke-width="3.000000"/>
<path fill="none" opacity="1.000000" stroke="#c76234" stroke-linecap="round" stroke-linejoin="round" stroke-width="2.000000"/>
<path fill="none" opacity="1.000000" stroke="#c76234" stroke-linecap="round" stroke-linejoin="round" stroke-width="2.000000"/>
<path fill="none" opacity="1.000000" stroke="#c76234" stroke-linecap="round" stroke-linejoin="round" stroke-width="2.000000"/>
<path fill="none" opacity="1.000000" stroke="#c76234" stroke-linecap="round" stroke-linejoin="round" stroke-width="3.000000" d=" M217.000000,790.000000   C204.833328,789.666687 192.666672,789.333313 180.500000,789.000000  "/>
<path fill="none" opacity="1.000000" stroke="#c76234" stroke-linecap="round" stroke-linejoin="round" stroke-width="3.000000" d=" M664.000000,789.000000   C651.833313,789.333313 639.666687,789.666626 627.500000,790.000000  "/>
<path fill="none" opacity="1.000000" stroke="#c76234" stroke-linecap="round" stroke-linejoin="round" stroke-width="3.000000" d=" M452.000000,448.500000   C452.000000,455.666656 452.191162,462.840607 451.919830,469.996948   C451.782837,473.610168 453.121124,474.888031 456.499664,474.497223   C458.826324,474.228027 461.233826,475.106964 463.500000,474.000000  "/>
<path fill="none" opacity="1.000000" stroke="#c76234" stroke-linecap="round" stroke-linejoin="round" stroke-width="3.000000" d=" M700.000000,591.000000   C668.666687,591.000000 637.333313,591.000000 606.000000,591.000000  "/>
<path fill="none" opacity="1.000000" stroke="#c76234" stroke-linecap="round" stroke-linejoin="round" stroke-width="3.000000" d=" M264.000000,790.000000   C252.333328,790.000000 240.666672,790.000000 229.000000,790.000000  "/>
<path fill="none" opacity="1.000000" stroke="#c76234" stroke-linecap="round" stroke-linejoin="round" stroke-width="3.000000" d=" M238.000000,591.000000   C207.000000,591.000000 176.000000,591.000000 145.000000,591.000000  "/>
<path fill="none" opacity="1.000000" stroke="#c76234" stroke-linecap="round" stroke-linejoin="round" stroke-width="3.000000" d=" M615.500000,790.000000   C603.833313,790.000000 592.166687,790.000000 580.500000,790.000000  "/>
<path fill="none" opacity="1.000000" stroke="#c76234" stroke-linecap="round" stroke-linejoin="round" stroke-width="3.000000" d=" M443.000000,630.500000   C444.547821,632.112488 444.001495,634.136047 443.976257,635.999695   C443.691772,656.998962 444.219696,677.998535 443.743011,699.005493   C443.601471,705.245178 443.065918,711.724609 444.500000,718.000000  "/>
<path fill="none" opacity="1.000000" stroke="#c76234" stroke-linecap="round" stroke-linejoin="round" stroke-width="3.000000" d=" M663.000000,607.000000   C653.333313,607.000000 643.666687,607.000000 634.000000,607.000000  "/>
<path fill="none" opacity="1.000000" stroke="#c76234" stroke-linecap="round" stroke-linejoin="round" stroke-width="3.000000" d=" M705.000000,789.000000   C695.500000,789.000000 686.000000,789.000000 676.500000,789.000000  "/>
<path fill="none" opacity="1.000000" stroke="#c76234" stroke-linecap="round" stroke-linejoin="round" stroke-width="3.000000" d=" M168.000000,789.000000   C158.666672,789.000000 149.333328,789.000000 140.000000,789.000000  "/>
<path fill="none" opacity="1.000000" stroke="#c76234" stroke-linecap="round" stroke-linejoin="round" stroke-width="3.000000" d=" M210.000000,607.000000   C200.666672,607.000000 191.333328,607.000000 182.000000,607.000000  "/>
<path fill="none" opacity="1.000000" stroke="#c76234" stroke-linecap="round" stroke-linejoin="round" stroke-width="2.000000" d=" M394.500000,448.500000   C394.500000,456.833344 394.500000,465.166656 394.500000,473.500000  "/>
<path fill="none" opacity="1.000000" stroke="#c76234" stroke-linecap="round" stroke-linejoin="round" stroke-width="2.000000" d=" M451.500000,474.000000   C449.504669,476.394073 447.155518,474.371674 444.998108,474.439728   C439.337067,474.618317 433.666656,474.500000 428.000000,474.500000  "/>
<path fill="none" opacity="1.000000" stroke="#c76234" stroke-linecap="round" stroke-linejoin="round" stroke-width="2.000000" d=" M383.500000,474.000000   C395.156555,474.873627 406.833527,474.320312 418.500000,474.500000  "/>
<path fill="none" opacity="1.000000" stroke="#c76234" stroke-linecap="round" stroke-linejoin="round" stroke-width="2.000000" d=" M374.500000,773.500000   C366.833344,773.500000 359.166656,773.500000 351.500000,773.500000  "/>
<path fill="none" opacity="1.000000" stroke="#c76234" stroke-linecap="round" stroke-linejoin="round" stroke-width="2.000000" d=" M493.500000,773.500000   C485.833344,773.500000 478.166656,773.500000 470.500000,773.500000  "/>
<path fill="none" opacity="1.000000" stroke="#c76234" stroke-linecap="round" stroke-linejoin="round" stroke-width="2.000000"/>
<path fill="none" opacity="1.000000" stroke="#c76234" stroke-linecap="round" stroke-linejoin="round" stroke-width="3.000000" d=" M296.500000,790.000000   C289.666656,790.000000 282.833344,790.000000 276.000000,790.000000  "/>
<path fill="none" opacity="1.000000" stroke="#c76234" stroke-linecap="round" stroke-linejoin="round" stroke-width="2.000000"/>
<path fill="none" opacity="1.000000" stroke="#c76234" stroke-linecap="round" stroke-linejoin="round" stroke-width="3.000000" d=" M403.000000,109.500000   C402.460571,111.237274 401.483429,112.828979 403.465363,114.540108   C408.734009,119.088692 413.852905,123.811996 418.984741,128.516632   C420.115021,129.552811 421.115265,129.629410 422.516907,129.040207   C425.100830,127.954048 427.898865,128.124008 429.394867,130.564453   C430.942963,133.089951 430.243408,135.841751 428.011566,138.011902   C427.759308,138.257187 427.666656,138.666672 427.500000,139.000000  "/>
<path fill="none" opacity="1.000000" stroke="#c76234" stroke-linecap="round" stroke-linejoin="round" stroke-width="3.000000" d=" M403.000000,699.500000   C411.166656,699.333313 419.332825,699.129089 427.500183,699.013611   C432.665802,698.940552 437.833344,699.000000 443.000000,699.000000  "/>
<path fill="none" opacity="1.000000" stroke="#c76234" stroke-linecap="round" stroke-linejoin="round" stroke-width="2.000000" d=" M443.000000,654.500000   C432.500000,654.500000 422.000000,654.500000 411.500000,654.500000  "/>
<path fill="none" opacity="1.000000" stroke="#c76234" stroke-linecap="round" stroke-linejoin="round" stroke-width="2.000000" d=" M365.000000,610.500000   C368.666656,613.267334 372.333344,613.996521 376.000000,610.500000  "/>

<path fill="none" opacity="1.000000" stroke="#c76234" stroke-linejoin="round" stroke-width="3.000000" d=" M438.000000,636.500000   C428.452911,643.602112 418.795441,644.301514 409.000000,637.000000  "/><path fill="none" opacity="1.000000" stroke="#c76234" stroke-linecap="round" stroke-linejoin="round" stroke-width="2.000000" d=" M481.000000,610.500000   C477.649170,613.799377 474.106232,613.063965 470.500000,611.000000  "/>
<path fill="none" opacity="1.000000" stroke="#c76234" stroke-linecap="round" stroke-linejoin="round" stroke-width="2.000000" d=" M471.000000,654.500000   C474.328827,654.756592 477.711731,653.932007 481.000000,655.000000  "/>
<path fill="none" opacity="1.000000" stroke="#c76234" stroke-linecap="round"/>
<path fill="none" opacity="1.000000" stroke="#c76234" stroke-linecap="round" stroke-linejoin="round" stroke-width="3.000000" d=" M540.000000,554.000000   C537.333313,554.000000 534.666687,554.000000 532.000000,554.000000  "/>
<path fill="none" opacity="1.000000" stroke="#c76234" stroke-linecap="round" stroke-linejoin="round" stroke-width="3.000000" d=" M312.000000,554.000000   C309.333344,554.000000 306.666656,554.000000 304.000000,554.000000  "/>
<path fill="none" opacity="1.000000" stroke="#c76234" stroke-linecap="round" stroke-linejoin="round" stroke-width="2.000000" d=" M410.500000,654.500000   C408.000000,654.500000 405.500000,654.500000 403.000000,654.500000  "/>

<path fill="none" opacity="1.000000" stroke="#c76234" stroke-linecap="round" stroke-linejoin="round" stroke-width="3.000000" d=" M407.000000,638.000000   C407.102692,637.218018 409.167847,637.172729 407.963867,636.038330   C406.091919,634.274658 406.027863,631.229126 403.500000,630.000000  "/>
<path fill="none" opacity="1.000000" stroke="#c76234" stroke-linecap="round" stroke-linejoin="round" stroke-width="2.000000"/>
<path fill="none" opacity="1.000000" stroke="#c76234" stroke-linecap="round" stroke-linejoin="round" stroke-width="2.000000"/>
<path fill="none" opacity="1.000000" stroke="#c76234" stroke-linecap="round" stroke-linejoin="round" stroke-width="2.000000"/>
<path fill="none" opacity="1.000000" stroke="#c76234" stroke-linecap="round" stroke-linejoin="round"/>
<path fill="none" opacity="1.000000" stroke="#c76234" stroke-linejoin="round" stroke-width="2.000000"/>
<path fill="none" opacity="1.000000" stroke="#c76234" stroke-linecap="round" stroke-linejoin="round" stroke-width="3.000000" d=" M481.000000,699.000000   C477.338837,699.287842 473.629303,698.511047 470.000000,699.500000  "/>
<path fill="none" opacity="1.000000" stroke="#c76234" stroke-linecap="round" stroke-linejoin="round" stroke-width="2.000000" d=" M365.000000,654.000000   C368.627747,655.022827 372.344208,654.094299 376.000000,654.500000  "/>
<path fill="none" opacity="1.000000" stroke="#c76234" stroke-linecap="round" stroke-linejoin="round" stroke-width="3.000000" d=" M376.000000,699.500000   C372.372253,698.477173 368.655792,699.405701 365.000000,699.000000  "/>
<path fill="none" opacity="1.000000" stroke="#c76234" stroke-linecap="round" stroke-linejoin="round" stroke-width="2.000000"/>

<path fill="none" opacity="1.000000" stroke="#c76234" stroke-linecap="round" stroke-linejoin="round" stroke-width="2.000000"/>
<path fill="none" opacity="1.000000" stroke="#c76234" stroke-linecap="round" stroke-linejoin="round" stroke-width="3.000000" d=" M478.500000,778.500000   C476.557739,778.874573 475.945892,779.987427 475.954071,782.000183   C476.031250,800.999878 475.998718,820.000000 476.020660,839.000000   C476.020874,839.166809 476.333344,839.333313 476.750061,839.750000   C480.500000,839.750000 484.500000,839.750000 489.000000,839.750000   C489.000000,833.175415 489.000000,826.837708 489.000000,820.500000   C489.000000,808.333313 489.002197,796.166687 488.998993,784.000000   C488.997528,778.528992 488.992615,778.527344 483.500000,778.501099   C482.000031,778.493896 480.500000,778.500000 479.000000,778.500000  "/>
<path fill="none" opacity="1.000000" stroke="#c76234" stroke-linecap="round" stroke-linejoin="round" stroke-width="3.000000" d=" M408.500000,794.000000   C407.597015,794.097046 407.013611,794.596924 407.012512,795.500000   C406.994781,809.835266 407.000000,824.170532 407.000000,839.000000   C410.816681,839.000000 414.162262,838.901245 417.498627,839.034302   C419.775513,839.125000 420.475250,837.851013 420.480133,835.999939   C420.516663,822.164734 420.500000,808.329346 420.500000,794.000000   C416.348480,794.000000 412.674255,794.000000 409.000000,794.000000  "/>
<path fill="none" opacity="1.000000" stroke="#c76234" stroke-linecap="round" stroke-linejoin="round" stroke-width="3.000000" d=" M427.500000,794.000000   C426.597015,794.097046 426.013611,794.596924 426.012512,795.500000   C425.994781,809.835266 426.000000,824.170532 426.000000,838.250793   C426.833191,838.666931 427.161224,838.967041 427.500763,838.980652   C439.999847,839.482727 440.000000,839.479065 440.000000,827.000000   C440.000000,816.164124 440.000000,805.328186 440.000000,794.000000   C435.681152,794.000000 431.840576,794.000000 428.000000,794.000000  "/>
<path fill="none" opacity="1.000000" stroke="#c76234" stroke-linecap="round" stroke-linejoin="round" stroke-width="3.000000" d=" M359.500000,778.500000   C357.557739,778.874573 356.945923,779.987427 356.954102,782.000183   C357.031281,800.999878 356.998688,820.000000 357.020660,839.000000   C357.020844,839.166809 357.333405,839.333252 357.750122,839.750000   C361.500000,839.750000 365.500000,839.750000 369.750000,839.750000   C369.750000,819.336060 369.750000,799.168030 369.750000,778.851746   C366.706421,778.038452 363.331299,778.707153 360.000000,778.500000  "/>
</svg>